<?xml version="1.0" encoding="UTF-8"?>
<svg id="a" data-name="Layer 1" xmlns="http://www.w3.org/2000/svg" viewBox="0 0 512 447.5">
  <path d="M276.2,6.9c5.6-4.4,12.6-6.9,19.8-6.9,44.3,0,97.6,19.2,139.9,55.8,43.3,37.4,76.1,93.9,76.1,168.2v159.5c0,35.4-28.7,64-64,64H64c-35.3,0-64-28.7-64-64v-143.5c0-9.8,4.5-19.1,12.2-25.1,0,0,264-208,264-208ZM448,256H64v48h384v-11h0v-13.2.2-24ZM64,384h384v-1h0s0-.2,0-.2v-1.8h0s0-.2,0-.2v-1.8h0s0-.2,0-.2v-4.8h0s0-.2,0-.2v-32,.2-3h0v-3H64v48Z" style="fill: #fff; stroke-width: 0px;"/>
</svg>