<?xml version="1.0" encoding="UTF-8"?>
<svg id="a" data-name="Layer 1" xmlns="http://www.w3.org/2000/svg" viewBox="0 0 108.04 33.61">
  <text transform="translate(45 25.88)" style="fill: #fff; font-family: MyriadPro-Bold, &apos;Myriad Pro&apos;; font-size: 30.92px; font-weight: 700;"><tspan x="0" y="0" style="letter-spacing: 0em;">c</tspan><tspan x="14.07" y="0">a</tspan><tspan x="30.39" y="0" style="letter-spacing: -.01em;">k</tspan><tspan x="46.72" y="0">e</tspan></text>
  <path d="M17.78,1.94c.36-.28.81-.44,1.27-.44,2.85,0,6.28,1.24,9.01,3.59,2.79,2.41,4.9,6.05,4.9,10.83v8.29h0v.03h0v.03h0v.03h0v.03h0v.03h0v.03h0v.03h0v.03h0v.03h0v.03h0v.03h0v.03h0v.03h0v.03h0v.03h0v.03h0v.03h0v.03h0v.03h0v.03h0v.03h0v.03h0v.03h0v.03h0v.03h0v.03h0v.03h0v.03h0v.03h0v.03h0v.03h0v.03h0v.03h0v.03h0v.03h0v.03h0v.03h0v.03h0v.03h0v.03h0v.03h0v.03h0v.03h0v.03h0v.03h0v.03h0v.03h0v.03h0v.03h0v.03h0v.03h0v.03h0v.03h0v.03h0v.03h0v.03h0v.03h0v.03h0v.03h0v.03h0v.03h0v.03h0v.03h0v.03h0v.03h0v.03h0v.03h0v.03h0v.03h0v.03h0v.03h0v.03h0v.03h0v.03h0v.03h0v.03h0c0,2.29-1.85,4.13-4.12,4.13H4.12c-2.27,0-4.12-1.85-4.12-4.12v-9.24c0-.63.29-1.23.79-1.62C.79,15.33,17.78,1.94,17.78,1.94ZM28.84,17.98H4.12v3.09h24.72v-.44h0v-.27h0v-.05h0v-.19h0v-.61h0s0-.01,0-.01v-.28h0v-1.24ZM4.12,26.22h24.72v-.03h0v-.03h0s0-.01,0-.01h0v-.03h0v-.03h0v-.03h0v-.03h0v-.03h0s0-.01,0-.01h0v-.03h0v-.03h0v-.03h0v-.03h0s0-.01,0-.01h0v-.03h0v-.03h0v-.03h0v-.03h0v-.03h0v-.03h0v-.03h0v-.03h0v-.03h0v-.03h0v-.03h0v-.03h0s0-.01,0-.01h0v-.03h0v-.03h0v-.03h0v-.03h0v-.03h0v-.03h0v-.03h0v-.03h0v-.03h0v-.03h0v-.03h0v-.04h0v-.03h0v-.03h0v-.03h0v-.03h0v-.03h0v-.03h0v-.04h0v-.03h0v-.03h0v-.03h0v-.05h0v-.03h0v-.03h0v-.03h0v-.05h0v-.03h0v-.04h0v-.03h0v-.03h0v-.03h0v-.03h0v-.03h0v-.06h0v-.03h0v-.04h0v-.03h0v-.03h0v-.03h0v-.03h0v-.03h0v-.03h0v-.03h0v-.03h0v-.03h0v-.05h0v-.42h0v-.28h0s0,0,0,0v-.17h0v-.12h0v-.07h0s-24.72,0-24.72,0v3.09Z" style="fill: #fff; stroke-width: 0px;"/>
</svg>