<?xml version="1.0" encoding="UTF-8"?>
<svg id="a" data-name="Layer 1" xmlns="http://www.w3.org/2000/svg" viewBox="0 0 480.03 480.04">
  <path d="M231.22,1.02c-22.1-3.1-44.6.9-64.4,11.4l-74,39.5c-19.7,10.5-35.6,27-45.4,47.1L10.72,174.62C.92,194.72-2.28,217.52,1.62,239.52l14.5,82.8c3.9,22.1,14.6,42.3,30.7,57.9l60.3,58.4c16.1,15.6,36.6,25.6,58.7,28.7l83,11.7c22.1,3.1,44.6-.9,64.4-11.4l74-39.5c19.7-10.5,35.6-27,45.4-47.2l36.7-75.5c9.8-20.1,13-42.9,9.1-64.9l-14.6-82.8c-3.9-22.1-14.6-42.3-30.7-57.9l-60.2-58.3c-16.1-15.6-36.6-25.6-58.7-28.7L231.22,1.02ZM192.02,128.02c17.67,0,32,14.33,32,32s-14.33,32-32,32-32-14.33-32-32,14.33-32,32-32ZM128.02,320.02c0-17.67,14.33-32,32-32s32,14.33,32,32-14.33,32-32,32-32-14.33-32-32ZM352.02,256.02c17.67,0,32,14.33,32,32s-14.33,32-32,32-32-14.33-32-32,14.33-32,32-32Z" style="fill: #fff; stroke-width: 0px;"/>
</svg>