<?xml version="1.0" encoding="UTF-8"?>
<svg id="a" data-name="Layer 1" xmlns="http://www.w3.org/2000/svg" viewBox="0 0 134.44 35.93">
  <text transform="translate(43.2 27.94)" style="fill: #fff; font-family: MyriadPro-Bold, &apos;Myriad Pro&apos;; font-size: 30.92px; font-weight: 700;"><tspan x="0" y="0" style="letter-spacing: -.01em;">c</tspan><tspan x="13.6" y="0" style="letter-spacing: 0em;">o</tspan><tspan x="31.54" y="0">o</tspan><tspan x="49.38" y="0" style="letter-spacing: .01em;">k</tspan><tspan x="66.44" y="0" style="letter-spacing: 0em;">ie</tspan></text>
  <path d="M17.31.08c-1.65-.23-3.34.07-4.82.85l-5.54,2.96c-1.47.79-2.66,2.02-3.4,3.53L.8,13.07c-.73,1.5-.97,3.21-.68,4.86l1.09,6.2c.29,1.65,1.09,3.17,2.3,4.33l4.51,4.37c1.21,1.17,2.74,1.92,4.39,2.15l6.21.88c1.65.23,3.34-.07,4.82-.85l5.54-2.96c1.47-.79,2.66-2.02,3.4-3.53l2.75-5.65c.73-1.5.97-3.21.68-4.86l-1.09-6.2c-.29-1.65-1.09-3.17-2.3-4.33l-4.51-4.36c-1.21-1.17-2.74-1.92-4.39-2.15L17.31.08ZM14.37,9.58c1.32,0,2.4,1.07,2.4,2.4s-1.07,2.4-2.4,2.4-2.4-1.07-2.4-2.4,1.07-2.4,2.4-2.4ZM9.58,23.95c0-1.32,1.07-2.4,2.4-2.4s2.4,1.07,2.4,2.4-1.07,2.4-2.4,2.4-2.4-1.07-2.4-2.4ZM26.35,19.16c1.32,0,2.4,1.07,2.4,2.4s-1.07,2.4-2.4,2.4-2.4-1.07-2.4-2.4,1.07-2.4,2.4-2.4Z" style="fill: #fff; stroke-width: 0px;"/>
</svg>