<?xml version="1.0" encoding="UTF-8"?>
<svg id="a" data-name="Layer 1" xmlns="http://www.w3.org/2000/svg" viewBox="0 0 511.96 512">
  <path d="M447.96,144c0-44.2-35.8-80-80-80-26.2,0-49.4,12.6-64,32h-71.8C251.96,40.1,305.26,0,367.96,0c79.5,0,144,64.5,144,144s-62.6,142.1-140.5,144l6.5-64.6c39.5-4.9,70-38.6,70-79.4ZM249.26,224l-.1,1.3-.9-1.3h1ZM8.26,138.5c6-6.7,14.7-10.5,23.7-10.5h288c9,0,17.7,3.8,23.7,10.5s9,15.7,8.1,24.7l-29.1,291.2c-3.2,32.7-30.8,57.6-63.7,57.6H92.96c-32.9,0-60.4-24.9-63.7-57.6L.16,163.2c-.9-9,2-18,8.1-24.7ZM67.36,192l6.4,64h204.4l6.4-64H67.36Z" style="fill: #fff; stroke-width: 0px;"/>
</svg>