<?xml version="1.0" encoding="UTF-8"?>
<svg id="a" data-name="Layer 1" xmlns="http://www.w3.org/2000/svg" viewBox="0 0 93.67 33.61">
  <text transform="translate(50.38 25.88)" style="fill: #fff; font-family: MyriadPro-Bold, &apos;Myriad Pro&apos;; font-size: 30.92px; font-weight: 700;"><tspan x="0" y="0">pie</tspan></text>
  <path d="M42.27,13.42c.25.63.71,1.16,1.31,1.46l1.3.65c1.27.64,1.78,2.18,1.15,3.45s-2.18,1.78-3.45,1.15l-2.38-1.19c-1.18-.59-2.55-.71-3.81-.31l-3.34,1.03c-1.87.58-3.88.52-5.72-.14l-2.41-.88c-1.13-.41-2.38-.41-3.51,0l-2.41.88c-1.84.67-3.85.72-5.72.14l-3.34-1.03c-1.26-.39-2.63-.27-3.81.31l-2.39,1.19c-1.27.64-2.81.12-3.45-1.15s-.12-2.81,1.15-3.45l1.3-.65c.6-.31,1.06-.84,1.31-1.46C7.07,5.83,14.48.46,23.15.46s16.09,5.36,19.12,12.95ZM16.01,5.75c-.64-.32-1.41-.06-1.73.58l-1.29,2.57c-.32.64-.06,1.41.58,1.73.18.09.36.13.55.14h.06c.46,0,.9-.27,1.13-.71l1.29-2.57c.32-.64.06-1.41-.58-1.73h0ZM30.3,5.75c-.64.32-.89,1.09-.58,1.73l1.29,2.57c.22.44.66.7,1.13.71h.06c.18,0,.37-.05.55-.14.64-.32.89-1.09.58-1.73l-1.29-2.57c-.32-.64-1.09-.89-1.73-.58h0ZM23.15,5.61c-.71,0-1.29.58-1.29,1.29v2.57c0,.71.58,1.29,1.29,1.29s1.29-.58,1.29-1.29v-2.57c0-.71-.58-1.29-1.29-1.29ZM24.03,21.05l2.41.88c2.37.86,4.95.92,7.36.18l3.34-1.03c.64-.19,1.32-.14,1.91.16l2.38,1.19s.07.03.1.05l-1.78,5.34c-.7,2.1-2.67,3.52-4.88,3.52H11.42c-2.21,0-4.18-1.41-4.88-3.52l-1.78-5.34s.07-.03.1-.05l2.38-1.19c.59-.3,1.28-.35,1.91-.16l3.34,1.03c2.41.74,4.99.68,7.36-.18l2.41-.88c.57-.21,1.19-.21,1.76,0h0Z" style="fill: #fff; stroke-width: 0px;"/>
</svg>