<?xml version="1.0" encoding="UTF-8"?>
<svg id="a" data-name="Layer 1" xmlns="http://www.w3.org/2000/svg" viewBox="0 0 116.56 39.67">
  <path d="M34.71,11.16c0-3.42-2.77-6.2-6.2-6.2-2.03,0-3.83.98-4.96,2.48h-5.56c1.53-4.33,5.66-7.44,10.52-7.44,6.16,0,11.16,5,11.16,11.16s-4.85,11.01-10.89,11.16l.5-5.01c3.06-.38,5.42-2.99,5.42-6.15ZM19.31,17.36v.1s-.08-.1-.08-.1h.08ZM.64,10.73c.46-.52,1.14-.81,1.84-.81h22.32c.7,0,1.37.29,1.84.81s.7,1.22.63,1.91l-2.25,22.56c-.25,2.53-2.39,4.46-4.94,4.46H7.2c-2.55,0-4.68-1.93-4.94-4.46L.01,12.65c-.07-.7.15-1.39.63-1.91ZM5.22,14.88l.5,4.96h15.84l.5-4.96H5.22Z" style="fill: #fff; stroke-width: 0px;"/>
  <text transform="translate(43.22 29.81)" style="fill: #fff; font-family: MyriadPro-Bold, &apos;Myriad Pro&apos;; font-size: 30.92px; font-weight: 700;"><tspan x="0" y="0">small</tspan></text>
</svg>