<?xml version="1.0" encoding="UTF-8"?>
<svg id="a" data-name="Layer 1" xmlns="http://www.w3.org/2000/svg" viewBox="0 0 117.3 35.93">
  <text transform="translate(38.71 27.94)" style="fill: #fff; font-family: MyriadPro-Bold, &apos;Myriad Pro&apos;; font-size: 30.92px; font-weight: 700;"><tspan x="0" y="0" style="letter-spacing: 0em;">w</tspan><tspan x="23.25" y="0" style="letter-spacing: 0em;">a</tspan><tspan x="39.33" y="0" style="letter-spacing: 0em;">t</tspan><tspan x="50.52" y="0">er</tspan></text>
  <path d="M2.25,0c-.62,0-1.22.26-1.64.72C.18,1.17-.04,1.78,0,2.41l2.02,28.31c.21,2.94,2.65,5.21,5.6,5.21h11.69c2.95,0,5.39-2.27,5.6-5.21l2.02-28.31c.04-.62-.17-1.24-.6-1.69s-1.02-.72-1.64-.72H2.25ZM5.12,10.98l-.46-6.49h17.63l-.46,6.49-1.7.85c-1.36.68-2.96.68-4.32,0-1.47-.73-3.19-.73-4.66,0-1.36.68-2.96.68-4.32,0l-1.7-.85Z" style="fill: #fff; stroke-width: 0px;"/>
</svg>