<?xml version="1.0" encoding="UTF-8"?>
<svg id="a" data-name="Layer 1" xmlns="http://www.w3.org/2000/svg" viewBox="0 0 383.97 512">
  <path d="M32,0C23.1,0,14.6,3.7,8.6,10.2,2.6,16.7-.6,25.4.1,34.3l28.8,403.4c3,41.9,37.8,74.3,79.8,74.3h166.6c42,0,76.8-32.4,79.8-74.3l28.8-403.4c.6-8.9-2.4-17.6-8.5-24.1s-14.5-10.2-23.4-10.2H32ZM73,156.5l-6.6-92.5h251.2l-6.6,92.5-24.2,12.1c-19.4,9.7-42.2,9.7-61.6,0-20.9-10.4-45.5-10.4-66.4,0-19.4,9.7-42.2,9.7-61.6,0l-24.2-12.1Z" style="fill: #fff; stroke-width: 0px;"/>
</svg>